if (_typeface_js && _typeface_js.loadFace) _typeface_js.loadFace({"glyphs":{"S":{"x_min":26,"x_max":1002.390625,"ha":1053,"o":"m 26 350 q 101 328 63 339 q 227 309 170 309 q 276 313 252 309 q 406 417 366 327 q 451 614 432 475 q 469 786 459 700 q 526 969 484 899 q 688 1092 581 1059 q 782 1108 737 1108 q 1002 1005 888 1108 l 930 730 q 910 750 935 731 q 859 769 884 769 q 820 753 838 769 q 745 505 770 710 q 689 194 717 259 q 582 75 662 129 q 362 3 485 7 q 131 3 223 -1 q 62 9 60 5 l 26 350 "},"/":{"x_min":66.09375,"x_max":1052.5,"ha":1006,"o":"m 1052 1048 q 367 4 1012 991 l 66 18 q 412 530 66 18 q 798 1107 773 1063 l 1052 1048 "},"K":{"x_min":25,"x_max":1075,"ha":1036,"o":"m 765 624 q 970 849 841 706 l 726 1104 q 401 670 643 994 l 401 672 q 390 856 395 765 q 381 1063 377 1050 l 25 1043 q 68 527 31 1018 q 104 0 104 36 l 440 29 q 434 102 438 30 q 429 188 429 173 l 565 334 q 706 198 618 288 q 834 56 804 98 l 1075 305 q 765 624 944 434 "},"7":{"x_min":97,"x_max":1015.0625,"ha":1113,"o":"m 259 111 q 434 452 283 151 q 598 786 583 749 l 197 786 l 97 1099 q 1015 1094 924 1099 l 994 1019 q 776 499 944 902 q 569 -7 592 59 l 259 111 "},"d":{"x_min":24,"x_max":894.375,"ha":972,"o":"m 90 888 q 504 837 380 864 q 835 671 739 787 q 893 489 901 589 q 624 114 874 246 q 122 3 414 3 q 24 7 72 3 q 90 888 92 878 m 317 320 q 456 352 400 313 q 521 454 512 390 q 339 600 537 583 l 317 320 "},",":{"x_min":15,"x_max":448,"ha":549,"o":"m 416 269 q 448 185 448 230 q 363 67 448 117 l 84 -182 l 15 -119 l 180 195 q 257 369 178 369 q 416 269 321 369 "},"Y":{"x_min":23,"x_max":1181.34375,"ha":1228,"o":"m 292 46 q 331 335 300 105 q 183 633 334 351 q 23 922 32 915 l 298 1103 q 552 643 303 1096 q 738 833 557 659 q 938 1015 920 1006 l 1181 783 q 925 543 1171 775 q 677 303 678 307 q 634 -1 634 26 l 292 46 "},"E":{"x_min":26,"x_max":801,"ha":881,"o":"m 746 -3 q 366 19 699 -1 q 26 41 24 40 q 101 1101 63 570 q 801 1065 448 1081 l 785 823 q 478 848 634 835 l 473 746 q 695 733 567 737 l 666 351 q 553 357 642 351 q 445 365 464 363 l 433 222 q 589 211 512 216 q 762 200 751 198 l 746 -3 "},"y":{"x_min":23,"x_max":949.390625,"ha":1017,"o":"m 238 37 q 270 268 245 85 q 150 508 271 280 q 23 737 29 731 l 243 883 q 446 515 246 876 q 595 666 450 527 q 754 812 739 805 l 949 626 q 743 433 941 620 q 546 241 546 246 q 510 -1 511 21 l 238 37 "},"\"":{"x_min":30,"x_max":809,"ha":885,"o":"m 325 1050 q 377 954 377 1008 q 320 846 377 901 l 109 548 l 30 593 l 117 928 q 105 1022 105 983 q 173 1113 105 1113 q 325 1050 234 1113 m 786 938 q 809 865 809 904 q 715 748 809 791 l 420 533 l 359 601 l 551 890 q 637 1051 566 1051 q 786 938 700 1051 "},"g":{"x_min":29,"x_max":863.71875,"ha":938,"o":"m 791 134 q 462 -6 669 -3 q 176 82 288 -7 q 31 366 55 180 q 29 420 29 392 q 158 740 29 602 q 462 879 288 879 q 726 777 604 879 q 649 683 731 773 q 559 597 566 594 q 488 612 523 612 q 356 542 410 612 q 311 416 308 480 q 356 290 312 337 q 479 244 399 244 q 522 246 499 244 q 615 324 598 257 q 474 413 485 409 l 842 548 q 854 481 848 515 q 863 363 863 417 q 791 134 863 216 "},"e":{"x_min":25.96875,"x_max":645.4375,"ha":711,"o":"m 602 -3 q 296 15 563 -1 q 26 33 23 31 q 85 881 55 457 q 645 851 363 865 l 632 658 q 387 679 512 669 l 383 598 q 560 587 457 589 l 537 281 q 447 287 519 282 q 360 291 376 291 l 351 178 q 613 160 609 160 l 602 -3 "},"J":{"x_min":19,"x_max":764.828125,"ha":840,"o":"m 19 231 q 176 289 96 260 q 305 370 263 323 q 371 542 361 431 l 390 759 q 409 926 400 842 q 425 1100 426 1079 l 764 1073 q 723 731 748 1011 l 704 513 q 542 169 684 299 q 195 -6 420 55 l 19 231 "},"^":{"x_min":0,"x_max":0,"ha":500},"q":{"x_min":20,"x_max":874,"ha":965,"o":"m 676 3 q 433 41 554 22 q 145 173 254 80 q 20 457 20 277 q 140 754 20 631 q 474 886 271 886 q 763 782 653 886 q 874 508 874 679 q 855 419 871 463 q 724 229 818 312 q 860 182 740 222 l 676 3 m 458 352 q 547 390 505 352 q 596 496 596 433 q 551 589 596 551 q 467 623 511 623 q 365 578 411 623 q 320 480 320 533 q 368 386 320 425 q 458 352 411 352 "},"b":{"x_min":22,"x_max":698.578125,"ha":793,"o":"m 22 26 q 51 446 23 33 q 78 860 80 859 q 391 883 226 884 q 635 823 558 880 q 692 710 697 778 q 670 622 687 660 q 545 494 631 526 q 655 420 614 477 q 698 241 703 352 q 641 119 685 171 q 284 -1 534 -1 q 22 26 167 -1 m 255 189 q 290 188 267 189 q 323 187 313 187 q 390 204 369 187 q 415 278 412 222 q 321 361 419 361 q 267 355 296 361 l 255 189 m 285 570 q 314 569 300 569 q 399 596 369 569 q 428 659 430 623 q 356 708 426 708 q 294 701 370 708 l 285 570 "},"D":{"x_min":26,"x_max":1113.421875,"ha":1185,"o":"m 109 1108 q 626 1046 471 1078 q 1039 837 919 984 q 1112 612 1123 735 q 776 141 1088 306 q 148 4 512 4 q 26 8 85 4 q 109 1108 67 556 m 391 401 q 566 440 491 391 q 648 591 648 494 q 418 751 648 730 l 391 401 "},"z":{"x_min":16,"x_max":814.609375,"ha":851,"o":"m 720 0 q 16 81 704 1 q 200 341 24 77 q 370 606 377 604 q 86 640 363 607 l 117 883 q 814 797 117 883 q 484 275 784 763 q 749 240 617 257 l 720 0 "},"w":{"x_min":19,"x_max":1156.515625,"ha":1142,"o":"m 260 883 q 345 661 270 848 q 424 454 420 474 q 580 666 435 469 q 700 431 600 633 q 819 621 710 436 q 948 852 928 806 l 1156 737 q 710 0 1148 722 q 623 98 700 1 q 544 202 552 187 q 348 22 546 198 q 185 404 267 212 q 19 824 44 740 l 260 883 "},"$":{"x_min":49,"x_max":999,"ha":1057,"o":"m 49 411 q 124 394 86 402 q 249 378 194 378 q 283 379 267 378 q 397 421 367 389 q 420 497 420 446 q 420 525 420 505 q 420 554 420 543 q 422 596 420 578 q 436 710 429 653 q 478 830 449 783 q 594 922 518 893 q 606 936 601 924 q 638 1024 608 937 q 667 1113 669 1111 q 903 1074 670 1110 q 843 894 872 983 q 925 866 867 898 q 999 816 976 839 l 842 679 q 824 693 846 680 q 780 705 801 705 q 746 695 761 705 q 712 587 712 672 q 716 505 712 562 q 720 419 720 448 q 685 274 720 319 q 576 181 636 213 q 526 160 531 156 q 475 8 501 78 q 232 41 357 21 q 250 94 240 68 q 268 149 269 149 q 140 158 210 147 q 80 172 79 169 l 49 411 "},"\\":{"x_min":37,"x_max":1024.5,"ha":1051,"o":"m 37 1048 q 720 4 77 991 l 1024 17 q 677 530 1023 17 q 291 1108 316 1063 l 37 1048 "},"-":{"x_min":42,"x_max":682.28125,"ha":789,"o":"m 682 475 l 671 243 l 42 200 l 54 430 l 682 475 "},"Q":{"x_min":20,"x_max":1088,"ha":1175,"o":"m 840 3 q 536 52 688 27 q 175 216 313 101 q 20 570 20 347 q 171 942 20 788 q 588 1108 333 1108 q 949 978 810 1108 q 1088 636 1088 848 q 1064 523 1083 579 q 900 286 1017 390 q 1070 226 920 277 l 840 3 m 567 440 q 679 487 626 440 q 739 619 739 540 q 683 735 739 688 q 579 777 634 777 q 451 721 508 777 q 395 599 395 666 q 456 481 395 530 q 567 440 508 440 "},"M":{"x_min":20,"x_max":1620.015625,"ha":1681,"o":"m 20 68 q 422 1065 31 97 q 618 893 436 1058 q 803 715 800 727 q 964 912 800 729 q 1135 1103 1049 1008 l 1620 152 l 1257 40 q 1147 231 1254 44 q 1038 422 1039 419 q 833 156 1039 419 q 601 395 829 158 q 422 -1 515 208 l 20 68 "},"C":{"x_min":30,"x_max":1170.28125,"ha":1224,"o":"m 1170 128 q 749 11 977 47 q 603 -1 673 -1 q 153 197 311 -1 q 30 539 30 351 q 31 573 30 557 q 218 916 52 775 q 864 1104 442 1104 q 1013 1099 935 1104 q 900 766 1021 1074 q 843 766 871 766 q 567 698 670 766 q 474 549 474 637 q 489 486 474 517 q 694 387 535 385 q 872 424 767 387 q 1002 470 936 447 l 1170 128 "},"[":{"x_min":0,"x_max":0,"ha":500},"L":{"x_min":31,"x_max":799.046875,"ha":838,"o":"m 799 84 q 154 3 154 3 q 94 523 153 1 q 31 1066 33 1051 l 351 1108 q 433 384 350 1103 q 724 422 724 422 l 799 84 "},"!":{"x_min":33,"x_max":302.453125,"ha":307,"o":"m 302 1087 q 219 409 269 837 l 71 398 q 33 1099 53 684 l 302 1087 m 148 -6 q 224 25 192 -6 q 256 102 256 56 q 224 179 256 147 q 148 211 192 211 q 71 179 103 211 q 39 102 39 147 q 71 25 39 56 q 148 -6 103 -6 "}," ":{"x_min":0,"x_max":0,"ha":632},"X":{"x_min":23,"x_max":1121.609375,"ha":1078,"o":"m 81 203 q 228 382 154 291 q 346 539 354 536 q 195 644 336 543 q 23 770 53 745 l 213 1015 q 367 895 243 987 q 534 770 499 800 q 796 1104 643 904 l 1021 926 q 893 749 1006 906 q 792 612 792 609 q 939 488 866 549 q 1121 327 1118 330 l 932 97 q 752 222 907 119 q 570 345 592 326 q 291 -1 441 190 l 81 203 "},"P":{"x_min":26,"x_max":923,"ha":1000,"o":"m 214 -3 q 26 1040 213 0 q 539 1103 380 1104 q 918 873 877 1098 q 923 820 923 848 q 799 548 923 679 q 438 327 668 409 l 448 269 q 492 48 482 78 l 214 -3 m 410 666 q 573 775 571 684 q 459 852 574 852 q 376 843 421 852 l 410 666 "},"%":{"x_min":58,"x_max":1727,"ha":1786,"o":"m 752 785 q 677 583 752 673 q 395 465 578 465 q 138 555 228 465 q 58 764 58 637 q 148 991 58 894 q 424 1101 250 1101 q 665 1021 579 1101 q 752 785 752 941 m 311 778 q 337 704 311 733 q 401 675 363 675 q 470 702 443 675 q 498 781 498 730 q 407 891 498 891 q 336 857 362 891 q 311 778 311 823 m 1030 290 q 1121 515 1030 419 q 1396 625 1224 625 q 1640 544 1554 625 q 1727 308 1727 463 q 1650 107 1727 197 q 1368 -11 1552 -11 q 1111 80 1202 -11 q 1030 290 1030 161 m 1470 301 q 1443 384 1470 354 q 1382 411 1420 411 q 1309 376 1335 411 q 1284 297 1284 342 q 1309 222 1284 251 q 1374 193 1335 193 q 1441 221 1413 193 q 1470 301 1470 249 m 1367 1037 q 685 -3 1327 980 l 384 9 q 730 520 385 11 q 1115 1097 1090 1052 l 1367 1037 "},"#":{"x_min":31,"x_max":690.71875,"ha":776,"o":"m 416 402 l 424 520 l 305 511 l 297 393 l 416 402 m 659 257 l 565 251 l 560 158 l 397 147 l 404 239 l 286 230 l 280 138 l 117 126 l 124 219 l 31 213 l 41 375 l 134 382 l 143 500 l 50 493 l 62 655 l 155 662 l 161 754 l 324 767 l 318 673 l 435 683 l 442 775 l 603 786 l 598 693 l 690 700 l 679 537 l 586 530 l 578 412 l 669 420 l 659 257 "},"_":{"x_min":31,"x_max":669.890625,"ha":776,"o":"m 658 243 l 669 475 l 42 430 l 31 200 l 658 243 "},"+":{"x_min":40,"x_max":680.28125,"ha":763,"o":"m 667 242 l 680 473 l 480 461 l 501 622 l 276 608 l 259 444 l 51 430 l 40 198 l 246 219 l 233 58 l 463 73 l 478 230 l 667 242 "},")":{"x_min":23,"x_max":491,"ha":585,"o":"m 150 1099 q 367 915 272 1036 q 491 569 491 755 q 367 192 491 367 q 150 -6 270 57 l 29 107 q 178 241 116 156 q 277 556 277 374 q 175 846 277 712 q 23 980 100 944 l 150 1099 "},"'":{"x_min":26,"x_max":454,"ha":531,"o":"m 422 1005 q 454 923 454 968 q 370 807 454 856 l 95 560 l 26 622 l 189 933 q 266 1104 187 1104 q 422 1005 330 1104 "},"a":{"x_min":25,"x_max":1031.96875,"ha":1056,"o":"m 25 67 q 269 482 29 86 q 513 882 391 682 l 523 883 q 780 472 538 860 q 1031 65 1022 84 l 816 -1 q 762 75 788 37 q 698 167 705 155 l 366 167 q 315 77 358 150 q 269 0 273 4 l 25 67 m 631 348 q 525 523 578 433 q 478 435 525 521 q 431 348 431 349 l 631 348 "},"T":{"x_min":23,"x_max":878.53125,"ha":946,"o":"m 455 -5 q 336 741 455 -5 l 66 701 l 23 976 q 836 1100 178 998 l 878 832 q 600 787 632 792 l 716 34 l 455 -5 "},"=":{"x_min":30,"x_max":688.328125,"ha":706,"o":"m 657 160 l 668 392 l 41 347 l 30 117 l 657 160 m 677 568 l 688 800 l 60 755 l 49 525 l 677 568 "},"N":{"x_min":19,"x_max":1148.15625,"ha":1225,"o":"m 19 159 q 181 1103 23 156 q 492 833 241 1041 q 748 615 732 634 q 803 988 774 797 l 1148 915 q 989 -1 1139 879 q 881 83 950 30 q 412 411 713 208 q 355 112 387 283 l 19 159 "},"2":{"x_min":84,"x_max":1028.453125,"ha":1113,"o":"m 954 1 q 84 42 893 -1 q 402 315 247 158 q 623 668 616 533 q 468 846 632 846 q 249 804 385 846 l 127 1026 q 500 1106 335 1106 q 854 957 732 1106 q 941 703 952 839 q 890 515 932 600 q 797 379 859 451 q 696 265 747 322 l 1028 250 l 954 1 "},"j":{"x_min":19,"x_max":616.21875,"ha":700,"o":"m 19 186 q 144 232 81 209 q 248 295 214 259 q 301 434 292 345 l 316 608 q 331 740 324 674 q 344 879 345 862 l 616 858 q 583 584 603 808 l 568 411 q 160 -4 540 98 l 19 186 "},"Z":{"x_min":16,"x_max":1013.21875,"ha":1035,"o":"m 895 -1 q 16 103 875 1 q 245 427 24 97 q 457 758 466 756 q 103 802 449 759 l 141 1104 q 1013 995 141 1104 q 600 343 974 954 q 931 301 931 300 l 895 -1 "},"u":{"x_min":27,"x_max":856.171875,"ha":944,"o":"m 851 630 q 856 505 856 562 q 735 129 856 280 q 447 0 631 0 q 275 23 335 0 q 133 151 195 56 q 63 277 78 237 q 27 499 27 366 q 34 634 27 560 q 71 883 56 859 l 340 838 q 309 582 309 690 q 312 498 309 541 q 350 396 316 439 q 453 349 391 347 q 535 400 499 351 q 574 487 565 441 q 584 615 584 557 q 546 843 584 715 l 807 876 q 851 630 823 820 "},"1":{"x_min":311,"x_max":801,"ha":1113,"o":"m 526 -4 q 463 731 526 -5 q 311 921 464 731 q 710 1101 309 921 q 801 19 755 559 l 526 -4 "},"k":{"x_min":26,"x_max":864.890625,"ha":935,"o":"m 617 499 q 782 678 678 565 l 587 883 q 326 536 519 795 l 326 537 q 317 686 321 611 q 310 851 306 840 l 26 834 q 60 422 31 815 q 88 0 88 29 l 357 23 q 352 81 356 23 q 348 150 348 138 l 457 268 q 570 158 499 231 q 673 45 649 79 l 864 244 q 617 499 760 348 "},"<":{"x_min":0,"x_max":0,"ha":500},"t":{"x_min":23,"x_max":707.84375,"ha":781,"o":"m 368 -4 q 273 592 368 -4 l 57 561 l 23 780 q 674 879 148 798 l 707 664 l 485 629 l 577 27 l 368 -4 "},"W":{"x_min":19,"x_max":1441.234375,"ha":1397,"o":"m 320 1104 q 427 823 332 1059 q 525 566 520 594 q 720 833 539 586 q 871 540 746 791 q 1019 776 882 544 q 1180 1065 1155 1008 l 1441 922 q 884 0 1430 902 q 774 122 871 1 q 674 254 685 234 q 430 28 677 247 q 227 505 328 266 q 19 1030 49 924 l 320 1104 "},"v":{"x_min":18,"x_max":945.765625,"ha":933,"o":"m 255 834 q 519 433 368 662 q 702 886 605 641 l 945 808 q 573 4 788 463 l 565 3 q 272 369 509 66 q 18 691 30 676 l 255 834 "},">":{"x_min":0,"x_max":0,"ha":500},"s":{"x_min":24,"x_max":804.5625,"ha":882,"o":"m 24 280 q 83 262 53 270 q 185 247 139 247 q 224 249 205 247 q 328 333 296 260 q 364 490 350 380 q 378 629 371 559 q 424 774 390 719 q 554 874 468 848 q 629 886 593 886 q 804 804 714 886 l 747 584 q 731 600 751 586 q 690 615 711 615 q 660 603 674 615 q 600 404 619 569 q 554 156 576 208 q 469 59 532 104 q 293 3 392 5 q 108 1 180 -1 q 53 7 51 3 l 24 280 "},"B":{"x_min":22,"x_max":867,"ha":951,"o":"m 22 33 q 58 558 23 42 q 94 1076 94 1075 q 238 1091 127 1082 q 484 1103 390 1104 q 790 1029 692 1101 q 860 889 866 973 q 833 778 853 828 q 677 618 784 658 q 813 526 763 597 q 866 301 874 441 q 795 150 850 212 q 351 -1 661 -1 q 22 33 203 -1 m 314 236 q 357 235 329 236 q 398 234 385 234 q 479 253 454 234 q 513 347 510 278 q 396 451 517 451 q 329 444 366 451 l 314 236 m 350 713 q 387 711 369 711 q 497 747 456 711 q 530 823 531 779 q 440 885 526 885 q 393 880 419 885 q 361 876 376 879 l 350 713 "},"?":{"x_min":-0.59375,"x_max":776,"ha":764,"o":"m 1 988 q 117 1065 -14 1020 q 406 1111 259 1111 q 763 897 717 1111 q 776 772 776 836 q 737 576 776 655 q 601 466 691 483 q 427 233 427 436 q 431 154 427 154 q 175 155 191 151 q 205 512 169 452 q 297 577 219 537 q 427 650 398 629 q 487 744 491 695 q 395 832 478 832 q 164 743 306 832 l 1 988 m 175 -137 q 215 -39 175 -80 q 313 1 256 1 q 413 -39 372 1 q 454 -137 454 -80 q 413 -237 454 -196 q 313 -278 372 -278 q 215 -237 256 -278 q 175 -137 175 -196 "},"H":{"x_min":16,"x_max":1127,"ha":1219,"o":"m 106 4 q 16 1025 61 515 l 346 1054 q 361 908 347 1058 q 374 761 367 834 l 738 792 q 711 1080 715 1058 l 1033 1108 q 1127 95 1081 601 l 779 63 q 747 417 770 157 l 427 387 q 457 34 452 61 l 106 4 "},"c":{"x_min":27.28125,"x_max":941.5,"ha":986,"o":"m 941 102 q 604 8 787 37 q 487 0 544 0 q 113 174 241 0 q 29 459 15 312 q 180 733 45 620 q 695 883 358 883 q 815 879 754 883 q 726 612 822 858 q 679 612 702 612 q 458 558 540 612 q 385 439 385 509 q 396 388 385 413 q 561 308 433 308 q 702 338 618 309 q 805 376 754 358 l 941 102 "},"&":{"x_min":47,"x_max":1073.390625,"ha":1132,"o":"m 47 320 q 106 487 47 404 q 235 602 161 563 q 119 810 119 651 q 191 1002 119 919 q 453 1108 283 1105 q 695 1006 597 1109 q 775 838 780 919 q 775 777 775 808 q 757 684 773 722 q 685 608 734 630 q 822 485 761 577 q 870 347 877 399 q 958 283 870 342 q 1073 201 1055 218 q 848 30 963 115 q 744 102 834 36 q 681 47 737 79 q 476 3 597 0 q 151 105 267 8 q 47 320 47 193 m 559 378 q 529 461 559 431 q 459 492 499 492 q 382 458 410 492 q 354 372 354 424 q 383 295 354 325 q 456 266 413 266 q 529 295 499 266 q 559 378 559 324 m 372 770 q 396 707 372 733 q 455 681 420 681 q 517 705 491 681 q 543 774 543 730 q 460 864 543 864 q 395 837 419 864 q 372 770 372 811 "},"I":{"x_min":27,"x_max":629.78125,"ha":697,"o":"m 27 23 q 99 573 36 69 q 161 1100 160 1065 l 629 1072 q 558 536 624 1051 q 492 -6 493 21 l 27 23 "},"G":{"x_min":30,"x_max":1074.4375,"ha":1153,"o":"m 982 168 q 571 -7 831 -2 q 214 104 355 -9 q 34 458 63 225 q 30 526 30 491 q 193 926 30 753 q 571 1099 356 1099 q 902 972 748 1099 q 805 854 907 966 q 693 745 702 743 q 603 766 648 766 q 439 679 507 766 q 383 520 380 602 q 439 364 385 422 q 593 306 494 306 q 646 310 618 306 q 761 405 742 324 q 586 518 600 512 l 1046 684 q 1061 602 1053 644 q 1074 454 1074 522 q 982 168 1074 269 "},"(":{"x_min":27,"x_max":495.046875,"ha":564,"o":"m 489 999 q 340 864 402 949 q 241 548 241 730 q 342 259 241 393 q 495 125 417 161 l 367 7 q 152 190 245 69 q 27 536 27 350 q 152 912 27 737 q 367 1113 247 1047 l 489 999 "},"`":{"x_min":0,"x_max":0,"ha":500},"U":{"x_min":29,"x_max":1066.5,"ha":1160,"o":"m 1058 788 q 1066 631 1066 704 q 1024 355 1066 472 q 915 161 990 255 q 555 0 784 0 q 338 30 415 0 q 162 188 238 70 q 73 345 92 297 q 29 624 29 458 q 39 794 29 701 q 83 1104 66 1074 l 422 1048 q 382 726 382 862 q 386 623 382 676 q 433 495 390 548 q 562 436 484 433 q 664 499 619 438 q 712 609 702 551 q 726 769 726 695 q 679 1052 726 894 l 1005 1095 q 1024 1005 1014 1051 q 1058 788 1046 894 "},"F":{"x_min":27,"x_max":733.9375,"ha":794,"o":"m 486 32 q 92 4 287 16 q 27 1052 60 527 q 717 1108 370 1078 l 733 869 q 429 853 583 862 l 438 754 q 657 769 532 756 l 679 391 q 570 382 656 388 q 465 375 485 377 l 486 32 "},"r":{"x_min":26,"x_max":848,"ha":921,"o":"m 339 297 q 310 175 339 295 q 281 51 281 55 l 26 105 q 120 499 34 122 q 207 890 206 873 q 421 845 314 867 q 617 795 559 816 q 786 701 724 760 q 848 570 848 641 q 841 523 848 547 q 784 430 825 469 q 719 383 760 405 q 689 359 688 365 q 778 12 692 344 l 500 7 q 479 140 500 9 q 453 270 457 270 q 397 283 425 277 q 343 294 370 289 l 339 297 m 392 536 q 477 525 435 525 q 552 558 543 525 q 555 579 555 569 q 421 672 555 641 q 392 552 396 559 l 392 536 "},":":{"x_min":30,"x_max":253.609375,"ha":343,"o":"m 139 164 q 216 195 184 164 q 248 272 248 227 q 216 350 248 318 q 139 382 184 382 q 61 350 93 382 q 30 272 30 318 q 61 195 30 227 q 139 164 93 164 m 143 674 q 221 705 189 674 q 253 783 253 737 q 221 860 253 828 q 143 892 189 892 q 67 860 99 892 q 35 783 35 828 q 67 705 35 737 q 143 674 99 674 "},"x":{"x_min":24,"x_max":903.171875,"ha":976,"o":"m 69 162 q 187 305 128 233 q 282 430 289 427 q 160 515 274 434 q 24 616 47 597 l 175 812 q 299 716 200 788 q 432 616 404 640 q 642 883 519 722 l 822 741 q 719 599 810 726 q 637 490 639 487 q 757 390 697 440 q 903 262 900 263 l 751 77 q 605 178 732 95 q 461 276 479 261 q 237 0 357 151 l 69 162 "},"*":{"x_min":48,"x_max":702.171875,"ha":804,"o":"m 702 513 l 634 697 q 481 609 582 669 l 525 769 l 341 797 l 309 609 l 128 697 l 49 537 l 196 481 l 48 416 l 121 284 l 278 369 q 236 214 270 323 q 427 196 289 202 l 449 369 l 641 277 l 674 437 l 566 473 l 702 513 "},"V":{"x_min":16,"x_max":1177.109375,"ha":1192,"o":"m 313 1044 q 643 541 454 829 q 872 1108 752 801 l 1177 1009 q 710 4 979 578 l 700 4 q 334 461 631 83 q 16 863 32 845 l 313 1044 "},"h":{"x_min":17,"x_max":906,"ha":1001,"o":"m 89 3 q 17 819 43 529 l 280 843 q 293 726 282 845 q 303 608 297 668 l 595 633 q 573 864 576 846 l 830 888 q 906 76 868 482 l 628 51 q 601 333 619 126 l 344 309 q 370 27 367 48 l 89 3 "},"0":{"x_min":112,"x_max":1000.140625,"ha":1113,"o":"m 1000 585 q 889 186 1004 348 q 588 10 774 23 q 269 132 399 -3 q 116 490 139 268 q 112 585 112 537 q 202 931 112 793 q 512 1111 306 1090 q 551 1113 531 1113 q 869 950 737 1113 q 1000 585 997 794 m 391 515 q 580 341 419 325 q 687 401 646 348 q 726 553 732 458 q 548 781 710 781 q 516 778 533 781 q 386 589 386 761 q 391 515 386 554 "},".":{"x_min":29,"x_max":248.4375,"ha":361,"o":"m 138 3 q 216 34 184 3 q 248 112 248 66 q 216 190 248 158 q 138 222 184 222 q 61 190 94 222 q 29 112 29 158 q 61 34 29 66 q 138 3 94 3 "},"@":{"x_min":0,"x_max":0,"ha":500},"f":{"x_min":27,"x_max":592.28125,"ha":664,"o":"m 393 26 q 78 3 234 14 q 27 842 75 0 q 578 888 300 864 l 592 696 q 349 683 471 690 l 354 602 q 531 615 429 605 l 547 312 q 461 306 529 310 q 377 300 392 302 l 393 26 "},";":{"x_min":16,"x_max":447,"ha":496,"o":"m 279 665 q 356 697 324 665 q 388 774 388 729 q 356 851 388 819 q 279 883 324 883 q 202 851 234 883 q 170 774 170 819 q 202 697 170 729 q 279 665 234 665 m 415 304 q 447 222 447 265 q 363 104 447 154 l 85 -144 l 16 -81 l 180 230 q 257 404 178 404 q 415 304 321 404 "},"i":{"x_min":26,"x_max":507.9375,"ha":581,"o":"m 26 18 q 84 458 34 55 q 134 879 132 852 l 507 856 q 451 429 503 840 q 398 -4 399 18 l 26 18 "},"6":{"x_min":145.953125,"x_max":968.078125,"ha":1113,"o":"m 787 922 q 716 882 751 901 q 607 773 647 842 q 883 641 782 773 q 968 379 970 527 q 840 113 965 227 q 554 0 715 0 q 284 75 370 1 q 184 206 225 125 q 146 361 144 287 q 265 785 147 578 q 593 1106 391 1001 l 787 922 m 576 269 q 666 309 630 269 q 703 413 703 349 q 655 518 703 488 q 548 538 619 540 q 480 504 512 537 q 449 426 449 472 q 483 313 449 358 q 576 269 518 269 "},"A":{"x_min":27,"x_max":1285.3125,"ha":1354,"o":"m 27 83 q 332 603 31 108 q 638 1103 485 854 l 649 1103 q 970 591 668 1076 q 1285 81 1272 105 l 1015 -1 q 949 94 982 47 q 867 208 878 194 l 453 208 q 390 96 443 187 q 332 -1 338 5 l 27 83 m 783 434 q 653 654 719 541 q 594 544 653 652 q 535 434 535 436 l 783 434 "},"n":{"x_min":19,"x_max":923.15625,"ha":1001,"o":"m 19 127 q 149 883 23 126 q 398 666 196 833 q 602 491 589 508 q 646 791 623 637 l 923 731 q 795 -1 905 640 q 709 66 766 25 q 333 329 575 166 q 288 90 313 226 l 19 127 "},"O":{"x_min":23,"x_max":1188,"ha":1269,"o":"m 638 1103 q 1033 965 886 1103 q 1188 571 1188 821 q 1050 204 1188 367 q 565 -1 879 -1 q 168 148 318 -1 q 23 515 23 292 q 184 918 23 750 q 638 1103 357 1103 m 612 384 q 726 422 673 384 q 800 579 798 475 q 736 716 800 671 q 626 753 687 753 q 505 708 561 753 q 438 558 438 653 q 504 424 438 475 q 612 384 558 384 "},"3":{"x_min":168,"x_max":944.09375,"ha":1113,"o":"m 216 270 q 374 264 391 264 q 583 354 581 264 q 481 450 585 450 q 373 433 440 450 q 283 412 329 423 l 247 651 q 379 679 276 650 q 513 768 514 716 q 433 864 507 864 q 334 840 398 864 q 219 793 277 816 l 168 1023 q 500 1108 323 1108 q 733 1048 643 1108 q 839 859 833 983 q 825 748 841 805 q 749 644 802 667 q 927 474 884 641 q 944 309 945 405 q 824 97 935 167 q 556 20 735 40 q 209 4 488 13 l 216 270 "},"]":{"x_min":0,"x_max":0,"ha":500},"m":{"x_min":20,"x_max":1300.5625,"ha":1368,"o":"m 20 54 q 342 852 28 78 q 499 713 353 845 q 646 572 645 581 q 775 730 645 583 q 911 882 843 805 l 1300 122 l 1010 31 q 921 185 1007 34 q 835 337 835 336 q 671 125 835 334 q 485 316 668 126 q 342 -1 415 166 l 20 54 "},"9":{"x_min":119,"x_max":993,"ha":1113,"o":"m 139 201 q 460 390 353 273 q 196 508 285 413 q 119 716 119 593 q 127 798 119 757 q 278 1013 153 928 q 560 1099 403 1099 q 641 1093 601 1099 q 924 940 820 1064 q 993 747 993 858 q 986 669 993 709 q 740 262 948 461 q 321 -6 551 80 l 139 201 m 574 860 q 413 743 437 869 q 412 714 412 727 q 459 625 412 655 q 563 602 502 598 q 688 712 678 620 q 690 737 690 725 q 574 860 690 853 "},"l":{"x_min":30.03125,"x_max":643.890625,"ha":696,"o":"m 643 68 q 128 3 128 3 q 80 418 127 1 q 30 854 31 841 l 286 886 q 352 308 286 883 q 584 338 584 337 l 643 68 "},"8":{"x_min":144,"x_max":968,"ha":1113,"o":"m 144 315 q 203 480 144 397 q 332 595 258 556 q 216 803 216 645 q 288 995 216 913 q 550 1101 380 1098 q 792 999 694 1102 q 872 831 877 912 q 872 770 872 801 q 854 677 870 716 q 782 601 831 623 q 916 501 866 567 q 968 340 968 430 q 888 118 968 211 q 573 -4 784 -4 q 248 97 366 -4 q 144 315 144 184 m 657 371 q 627 454 657 424 q 556 485 597 485 q 479 451 508 485 q 451 365 451 417 q 480 288 451 318 q 554 259 510 259 q 627 288 597 259 q 657 371 657 317 m 469 763 q 493 700 469 726 q 552 674 517 674 q 614 698 588 674 q 640 767 640 723 q 557 857 640 857 q 492 830 516 857 q 469 763 469 804 "},"p":{"x_min":23.984375,"x_max":742,"ha":811,"o":"m 175 -1 q 23 831 175 0 q 435 882 307 883 q 739 698 705 879 q 742 656 742 677 q 643 438 742 543 q 354 262 539 327 l 362 215 q 397 38 390 62 l 175 -1 m 332 533 q 461 620 461 548 q 371 682 462 682 q 305 675 342 682 l 332 533 "},"4":{"x_min":54,"x_max":1058.15625,"ha":1113,"o":"m 561 23 q 574 249 561 36 l 54 285 l 84 536 l 584 1110 l 933 1083 l 896 532 l 1058 525 l 1004 232 l 869 241 q 854 4 856 20 l 561 23 m 656 791 l 383 545 l 656 532 l 656 791 "},"R":{"x_min":27,"x_max":1055,"ha":1140,"o":"m 418 362 q 383 211 420 362 q 346 55 346 61 l 27 123 q 145 615 36 145 q 254 1104 253 1084 q 521 1048 388 1076 q 767 987 692 1012 q 977 867 900 941 q 1055 705 1055 794 q 1046 647 1055 676 q 975 529 1025 577 q 892 470 945 499 q 856 441 854 448 q 967 6 860 423 l 620 0 q 593 166 621 4 q 561 330 565 329 q 491 345 525 338 q 424 359 457 352 l 418 362 m 485 662 q 590 648 538 648 q 685 690 674 648 q 688 715 688 702 q 521 831 688 794 q 485 683 490 691 l 485 662 "},"o":{"x_min":23,"x_max":955,"ha":1039,"o":"m 516 882 q 832 772 713 882 q 955 455 955 657 q 845 162 955 293 q 456 -1 707 -1 q 138 118 259 -1 q 23 412 23 233 q 150 734 23 600 q 516 882 291 882 m 493 307 q 586 337 543 307 q 645 462 643 380 q 593 573 645 535 q 506 601 554 601 q 409 566 453 601 q 355 447 355 521 q 409 338 355 380 q 493 307 450 307 "},"5":{"x_min":146,"x_max":968,"ha":1113,"o":"m 259 311 q 419 304 372 304 q 557 327 518 304 q 607 417 601 351 q 272 601 619 562 l 312 1106 q 940 1050 622 1082 l 916 799 l 622 822 l 611 781 q 897 636 806 741 q 968 444 968 555 q 963 400 968 422 q 826 118 938 211 q 386 0 686 0 q 146 15 276 0 l 259 311 "}}}
